<?xml version="1.0" encoding="UTF-8"?>
<!DOCTYPE svg PUBLIC "-//W3C//DTD SVG 1.1//EN" "http://www.w3.org/Graphics/SVG/1.1/DTD/svg11.dtd">
<svg xmlns="http://www.w3.org/2000/svg" version="1.1" width="311px" height="358px" style="shape-rendering:geometricPrecision; text-rendering:geometricPrecision; image-rendering:optimizeQuality; fill-rule:evenodd; clip-rule:evenodd" xmlns:xlink="http://www.w3.org/1999/xlink">
<g><path style="opacity:0.965" fill="#fefefd" d="M 153.5,-0.5 C 154.5,-0.5 155.5,-0.5 156.5,-0.5C 207.471,29.6568 258.804,59.3234 310.5,88.5C 310.5,106.5 310.5,124.5 310.5,142.5C 305.167,142.5 299.833,142.5 294.5,142.5C 294.829,127.657 294.496,112.99 293.5,98.5C 247.462,71.727 201.295,45.0603 155,18.5C 109.264,44.9528 63.431,71.2861 17.5,97.5C 16.5002,125.159 16.1669,152.825 16.5,180.5C 47.6712,180.831 78.6712,180.498 109.5,179.5C 115.298,184.797 120.965,190.297 126.5,196C 84.168,196.5 41.8346,196.667 -0.5,196.5C -0.5,160.5 -0.5,124.5 -0.5,88.5C 51.1682,59.3352 102.502,29.6685 153.5,-0.5 Z"/></g>
<g><path style="opacity:0.999" fill="#f28c40" d="M 293.5,98.5 C 293.833,112.849 293.499,127.182 292.5,141.5C 291.833,127.673 291.167,114.006 290.5,100.5C 246.336,74.5301 202.002,48.6968 157.5,23C 156.167,22.3333 154.833,22.3333 153.5,23C 109.167,48.5 64.8333,74 20.5,99.5C 19.5002,125.491 19.1669,151.491 19.5,177.5C 49.0047,177.831 78.3381,177.498 107.5,176.5C 109.048,176.821 109.715,177.821 109.5,179.5C 78.6712,180.498 47.6712,180.831 16.5,180.5C 16.1669,152.825 16.5002,125.159 17.5,97.5C 63.431,71.2861 109.264,44.9528 155,18.5C 201.295,45.0603 247.462,71.727 293.5,98.5 Z"/></g>
<g><path style="opacity:0.971" fill="#fefefd" d="M 290.5,100.5 C 290.5,114.5 290.5,128.5 290.5,142.5C 285.167,142.5 279.833,142.5 274.5,142.5C 274.821,131.252 274.487,120.085 273.5,109C 233.918,86.293 194.418,63.4596 155,40.5C 115.746,63.8786 76.2459,86.8786 36.5,109.5C 35.5005,126.487 35.1672,143.487 35.5,160.5C 54.1696,160.333 72.8363,160.5 91.5,161C 96.702,166.37 102.035,171.536 107.5,176.5C 78.3381,177.498 49.0047,177.831 19.5,177.5C 19.1669,151.491 19.5002,125.491 20.5,99.5C 64.8333,74 109.167,48.5 153.5,23C 154.833,22.3333 156.167,22.3333 157.5,23C 202.002,48.6968 246.336,74.5301 290.5,100.5 Z"/></g>
<g><path style="opacity:0.966" fill="#fefffe" d="M 145.5,74.5 C 156.898,74.249 168.232,74.9157 179.5,76.5C 179.817,79.5719 179.484,82.5719 178.5,85.5C 157.627,79.5278 141.793,85.8611 131,104.5C 126.577,116.413 128.243,127.413 136,137.5C 139.833,141.333 143.667,145.167 147.5,149C 162.115,159.281 176.449,169.948 190.5,181C 215.926,202.872 222.426,229.372 210,260.5C 202.594,272.226 192.094,279.726 178.5,283C 163.074,287.042 147.574,287.876 132,285.5C 131.503,282.854 131.336,280.187 131.5,277.5C 150.034,282.087 165.201,277.087 177,262.5C 184.039,247.294 182.039,233.294 171,220.5C 155.418,206.247 139.251,192.747 122.5,180C 108.935,169.025 99.7685,155.192 95,138.5C 90.6377,100.156 107.471,78.8231 145.5,74.5 Z"/></g>
<g><path style="opacity:0.951" fill="#f08533" d="M 157.5,87.5 C 175.33,88.8257 182.164,98.1591 178,115.5C 171.067,125.751 161.9,128.251 150.5,123C 139.013,112.722 138.679,102.055 149.5,91C 152.158,89.522 154.825,88.3554 157.5,87.5 Z"/></g>
<g><path style="opacity:1" fill="#f9bd8e" d="M 293.5,98.5 C 294.496,112.99 294.829,127.657 294.5,142.5C 293.167,142.5 291.833,142.5 290.5,142.5C 290.5,128.5 290.5,114.5 290.5,100.5C 291.167,114.006 291.833,127.673 292.5,141.5C 293.499,127.182 293.833,112.849 293.5,98.5 Z"/></g>
<g><path style="opacity:0.963" fill="#fefefd" d="M 310.5,160.5 C 310.5,196.5 310.5,232.5 310.5,268.5C 259.301,297.929 208.301,327.596 157.5,357.5C 156.167,357.5 154.833,357.5 153.5,357.5C 102.202,327.848 50.8687,298.182 -0.5,268.5C -0.5,251.167 -0.5,233.833 -0.5,216.5C 5.16667,216.5 10.8333,216.5 16.5,216.5C 16.5,216.833 16.5,217.167 16.5,217.5C 16.1674,231.516 16.5008,245.516 17.5,259.5C 63.2116,286.355 109.212,312.689 155.5,338.5C 201.49,312.171 247.49,285.838 293.5,259.5C 294.498,232.005 294.831,204.338 294.5,176.5C 262.5,176.5 230.5,176.5 198.5,176.5C 192.558,172.227 187.224,167.227 182.5,161.5C 225.161,160.5 267.828,160.167 310.5,160.5 Z"/></g>
<g><path style="opacity:0.999" fill="#f38d42" d="M 198.5,177.5 C 230.167,177.5 261.833,177.5 293.5,177.5C 293.5,204.833 293.5,232.167 293.5,259.5C 247.49,285.838 201.49,312.171 155.5,338.5C 109.212,312.689 63.2116,286.355 17.5,259.5C 16.5008,245.516 16.1674,231.516 16.5,217.5C 18.1605,230.635 19.1605,243.969 19.5,257.5C 64.7209,283.362 109.888,309.362 155,335.5C 200,309.5 245,283.5 290,257.5C 290.5,231.835 290.667,206.169 290.5,180.5C 261.167,180.5 231.833,180.5 202.5,180.5C 201.167,180.5 199.833,180.5 198.5,180.5C 198.5,179.5 198.5,178.5 198.5,177.5 Z"/></g>
<g><path style="opacity:1" fill="#fac8a0" d="M 198.5,177.5 C 198.5,177.167 198.5,176.833 198.5,176.5C 230.5,176.5 262.5,176.5 294.5,176.5C 294.831,204.338 294.498,232.005 293.5,259.5C 293.5,232.167 293.5,204.833 293.5,177.5C 261.833,177.5 230.167,177.5 198.5,177.5 Z"/></g>
<g><path style="opacity:0.972" fill="#fefefd" d="M 202.5,180.5 C 231.833,180.5 261.167,180.5 290.5,180.5C 290.667,206.169 290.5,231.835 290,257.5C 245,283.5 200,309.5 155,335.5C 109.888,309.362 64.7209,283.362 19.5,257.5C 19.5,243.833 19.5,230.167 19.5,216.5C 24.8333,216.5 30.1667,216.5 35.5,216.5C 35.1801,227.082 35.5134,237.582 36.5,248C 76.0818,270.707 115.582,293.54 155,316.5C 194.667,293.5 234.333,270.5 274,247.5C 274.5,230.503 274.667,213.503 274.5,196.5C 255.497,196.667 236.497,196.5 217.5,196C 212.297,190.965 207.297,185.798 202.5,180.5 Z"/></g>
<g><path style="opacity:1" fill="#f49f5f" d="M 16.5,217.5 C 16.5,217.167 16.5,216.833 16.5,216.5C 17.5,216.5 18.5,216.5 19.5,216.5C 19.5,230.167 19.5,243.833 19.5,257.5C 19.1605,243.969 18.1605,230.635 16.5,217.5 Z"/></g>
<g><path style="opacity:0.956" fill="#f08533" d="M 143.5,237.5 C 164.277,236.104 172.111,245.437 167,265.5C 161.324,273.84 153.49,276.673 143.5,274C 132.369,268.284 128.869,259.451 133,247.5C 135.738,243.26 139.238,239.926 143.5,237.5 Z"/></g>
</svg>
